<mxfile host="app.diagrams.net" modified="2023-06-07T17:52:58.965Z" agent="Mozilla/5.0 (Windows NT 10.0; Win64; x64) AppleWebKit/537.36 (KHTML, like Gecko) Chrome/114.0.0.0 Safari/537.36" etag="R4CHgvguFjcgaczUoNT6" version="21.3.7" type="device">
  <diagram name="PÃ¡gina-1" id="JZkxLVE-2ZuboixR1AyB">
    <mxGraphModel dx="1114" dy="462" grid="1" gridSize="10" guides="1" tooltips="1" connect="1" arrows="1" fold="1" page="1" pageScale="1" pageWidth="827" pageHeight="1169" math="0" shadow="0">
      <root>
        <mxCell id="0" />
        <mxCell id="1" parent="0" />
        <mxCell id="SKappxPomTD8owNMugFS-22" value="Habitacion" style="swimlane;fontStyle=1;align=center;verticalAlign=top;childLayout=stackLayout;horizontal=1;startSize=26;horizontalStack=0;resizeParent=1;resizeParentMax=0;resizeLast=0;collapsible=1;marginBottom=0;whiteSpace=wrap;html=1;" vertex="1" parent="1">
          <mxGeometry x="219" y="473" width="389" height="190" as="geometry" />
        </mxCell>
        <mxCell id="SKappxPomTD8owNMugFS-23" value="- numeroHabitacion: int" style="text;strokeColor=none;fillColor=none;align=left;verticalAlign=top;spacingLeft=4;spacingRight=4;overflow=hidden;rotatable=0;points=[[0,0.5],[1,0.5]];portConstraint=eastwest;whiteSpace=wrap;html=1;" vertex="1" parent="SKappxPomTD8owNMugFS-22">
          <mxGeometry y="26" width="389" height="26" as="geometry" />
        </mxCell>
        <mxCell id="SKappxPomTD8owNMugFS-26" value="- tamanhoHabitacion: double" style="text;strokeColor=none;fillColor=none;align=left;verticalAlign=top;spacingLeft=4;spacingRight=4;overflow=hidden;rotatable=0;points=[[0,0.5],[1,0.5]];portConstraint=eastwest;whiteSpace=wrap;html=1;" vertex="1" parent="SKappxPomTD8owNMugFS-22">
          <mxGeometry y="52" width="389" height="26" as="geometry" />
        </mxCell>
        <mxCell id="SKappxPomTD8owNMugFS-24" value="" style="line;strokeWidth=1;fillColor=none;align=left;verticalAlign=middle;spacingTop=-1;spacingLeft=3;spacingRight=3;rotatable=0;labelPosition=right;points=[];portConstraint=eastwest;strokeColor=inherit;" vertex="1" parent="SKappxPomTD8owNMugFS-22">
          <mxGeometry y="78" width="389" height="8" as="geometry" />
        </mxCell>
        <mxCell id="SKappxPomTD8owNMugFS-25" value="+ Habitacion(int numeroHabitacion, double tamanhoHabitacion)" style="text;strokeColor=none;fillColor=none;align=left;verticalAlign=top;spacingLeft=4;spacingRight=4;overflow=hidden;rotatable=0;points=[[0,0.5],[1,0.5]];portConstraint=eastwest;whiteSpace=wrap;html=1;" vertex="1" parent="SKappxPomTD8owNMugFS-22">
          <mxGeometry y="86" width="389" height="26" as="geometry" />
        </mxCell>
        <mxCell id="SKappxPomTD8owNMugFS-27" value="+ getNumeroHabitacion(): int" style="text;strokeColor=none;fillColor=none;align=left;verticalAlign=top;spacingLeft=4;spacingRight=4;overflow=hidden;rotatable=0;points=[[0,0.5],[1,0.5]];portConstraint=eastwest;whiteSpace=wrap;html=1;" vertex="1" parent="SKappxPomTD8owNMugFS-22">
          <mxGeometry y="112" width="389" height="26" as="geometry" />
        </mxCell>
        <mxCell id="SKappxPomTD8owNMugFS-28" value="+ getTamanhoHabitacion(): double" style="text;strokeColor=none;fillColor=none;align=left;verticalAlign=top;spacingLeft=4;spacingRight=4;overflow=hidden;rotatable=0;points=[[0,0.5],[1,0.5]];portConstraint=eastwest;whiteSpace=wrap;html=1;" vertex="1" parent="SKappxPomTD8owNMugFS-22">
          <mxGeometry y="138" width="389" height="26" as="geometry" />
        </mxCell>
        <mxCell id="SKappxPomTD8owNMugFS-41" value="+ mostrarInformacionHabitacion(): void" style="text;strokeColor=none;fillColor=none;align=left;verticalAlign=top;spacingLeft=4;spacingRight=4;overflow=hidden;rotatable=0;points=[[0,0.5],[1,0.5]];portConstraint=eastwest;whiteSpace=wrap;html=1;" vertex="1" parent="SKappxPomTD8owNMugFS-22">
          <mxGeometry y="164" width="389" height="26" as="geometry" />
        </mxCell>
        <mxCell id="SKappxPomTD8owNMugFS-29" value="Casa" style="swimlane;fontStyle=1;align=center;verticalAlign=top;childLayout=stackLayout;horizontal=1;startSize=26;horizontalStack=0;resizeParent=1;resizeParentMax=0;resizeLast=0;collapsible=1;marginBottom=0;whiteSpace=wrap;html=1;" vertex="1" parent="1">
          <mxGeometry x="266" y="150" width="296" height="216" as="geometry" />
        </mxCell>
        <mxCell id="SKappxPomTD8owNMugFS-33" value="- habitaciones: Habitacion[]" style="text;strokeColor=none;fillColor=none;align=left;verticalAlign=top;spacingLeft=4;spacingRight=4;overflow=hidden;rotatable=0;points=[[0,0.5],[1,0.5]];portConstraint=eastwest;whiteSpace=wrap;html=1;" vertex="1" parent="SKappxPomTD8owNMugFS-29">
          <mxGeometry y="26" width="296" height="26" as="geometry" />
        </mxCell>
        <mxCell id="SKappxPomTD8owNMugFS-34" value="- cantidadHabitaciones: int" style="text;strokeColor=none;fillColor=none;align=left;verticalAlign=top;spacingLeft=4;spacingRight=4;overflow=hidden;rotatable=0;points=[[0,0.5],[1,0.5]];portConstraint=eastwest;whiteSpace=wrap;html=1;" vertex="1" parent="SKappxPomTD8owNMugFS-29">
          <mxGeometry y="52" width="296" height="26" as="geometry" />
        </mxCell>
        <mxCell id="SKappxPomTD8owNMugFS-30" value="- CAPACIDAD_MAXIMA: int" style="text;strokeColor=none;fillColor=none;align=left;verticalAlign=top;spacingLeft=4;spacingRight=4;overflow=hidden;rotatable=0;points=[[0,0.5],[1,0.5]];portConstraint=eastwest;whiteSpace=wrap;html=1;" vertex="1" parent="SKappxPomTD8owNMugFS-29">
          <mxGeometry y="78" width="296" height="26" as="geometry" />
        </mxCell>
        <mxCell id="SKappxPomTD8owNMugFS-31" value="" style="line;strokeWidth=1;fillColor=none;align=left;verticalAlign=middle;spacingTop=-1;spacingLeft=3;spacingRight=3;rotatable=0;labelPosition=right;points=[];portConstraint=eastwest;strokeColor=inherit;" vertex="1" parent="SKappxPomTD8owNMugFS-29">
          <mxGeometry y="104" width="296" height="8" as="geometry" />
        </mxCell>
        <mxCell id="SKappxPomTD8owNMugFS-35" value="+ Casa()" style="text;strokeColor=none;fillColor=none;align=left;verticalAlign=top;spacingLeft=4;spacingRight=4;overflow=hidden;rotatable=0;points=[[0,0.5],[1,0.5]];portConstraint=eastwest;whiteSpace=wrap;html=1;" vertex="1" parent="SKappxPomTD8owNMugFS-29">
          <mxGeometry y="112" width="296" height="26" as="geometry" />
        </mxCell>
        <mxCell id="SKappxPomTD8owNMugFS-36" value="+ agregarHabitacion(Habitacion habitacion): void" style="text;strokeColor=none;fillColor=none;align=left;verticalAlign=top;spacingLeft=4;spacingRight=4;overflow=hidden;rotatable=0;points=[[0,0.5],[1,0.5]];portConstraint=eastwest;whiteSpace=wrap;html=1;" vertex="1" parent="SKappxPomTD8owNMugFS-29">
          <mxGeometry y="138" width="296" height="26" as="geometry" />
        </mxCell>
        <mxCell id="SKappxPomTD8owNMugFS-32" value="+ destruirCasa(): void" style="text;strokeColor=none;fillColor=none;align=left;verticalAlign=top;spacingLeft=4;spacingRight=4;overflow=hidden;rotatable=0;points=[[0,0.5],[1,0.5]];portConstraint=eastwest;whiteSpace=wrap;html=1;" vertex="1" parent="SKappxPomTD8owNMugFS-29">
          <mxGeometry y="164" width="296" height="26" as="geometry" />
        </mxCell>
        <mxCell id="SKappxPomTD8owNMugFS-37" value="+ mostrarInformacionCasa(): void" style="text;strokeColor=none;fillColor=none;align=left;verticalAlign=top;spacingLeft=4;spacingRight=4;overflow=hidden;rotatable=0;points=[[0,0.5],[1,0.5]];portConstraint=eastwest;whiteSpace=wrap;html=1;" vertex="1" parent="SKappxPomTD8owNMugFS-29">
          <mxGeometry y="190" width="296" height="26" as="geometry" />
        </mxCell>
        <mxCell id="SKappxPomTD8owNMugFS-38" value="" style="endArrow=diamondThin;endFill=1;endSize=24;html=1;rounded=0;exitX=0.5;exitY=0;exitDx=0;exitDy=0;entryX=0.503;entryY=1;entryDx=0;entryDy=0;entryPerimeter=0;" edge="1" parent="1" source="SKappxPomTD8owNMugFS-22" target="SKappxPomTD8owNMugFS-37">
          <mxGeometry width="160" relative="1" as="geometry">
            <mxPoint x="330" y="500" as="sourcePoint" />
            <mxPoint x="490" y="500" as="targetPoint" />
          </mxGeometry>
        </mxCell>
        <mxCell id="SKappxPomTD8owNMugFS-39" value="1" style="text;html=1;align=center;verticalAlign=middle;resizable=0;points=[];autosize=1;strokeColor=none;fillColor=none;" vertex="1" parent="1">
          <mxGeometry x="315" y="368" width="30" height="30" as="geometry" />
        </mxCell>
        <mxCell id="SKappxPomTD8owNMugFS-40" value="*" style="text;html=1;align=center;verticalAlign=middle;resizable=0;points=[];autosize=1;strokeColor=none;fillColor=none;" vertex="1" parent="1">
          <mxGeometry x="445" y="448" width="30" height="30" as="geometry" />
        </mxCell>
      </root>
    </mxGraphModel>
  </diagram>
</mxfile>
